<svg width="976" height="194" viewBox="0 0 976 194" fill="none" xmlns="http://www.w3.org/2000/svg">
<g clip-path="url(#clip0_693_1504)">
<path d="M238.64 136.61L239.06 52.7402L270.53 52.9003C276.98 52.9303 282.39 54.1602 286.75 56.5802C291.11 59.0002 294.41 62.3203 296.64 66.5403C298.87 70.7503 299.97 75.5302 299.95 80.8502C299.92 86.2202 298.76 90.9903 296.47 95.1603C294.18 99.3303 290.81 102.6 286.37 104.96C281.93 107.32 276.48 108.49 270.03 108.45L249.2 108.35L249.26 95.8502L268.01 95.9402C271.8 95.9602 274.91 95.3303 277.34 94.0403C279.77 92.7603 281.56 90.9703 282.71 88.6603C283.87 86.3603 284.45 83.7203 284.47 80.7603C284.48 77.7603 283.93 75.1202 282.79 72.8402C281.66 70.5602 279.88 68.7903 277.47 67.5203C275.05 66.2503 271.94 65.6102 268.11 65.5902L254.21 65.5203L253.85 136.67L238.65 136.59L238.64 136.61Z" fill="#F2F5F7"/>
<path d="M307.88 136.95L308.2 74.0205L322.55 74.0904L322.5 84.6705H323.18C324.32 81.0005 326.31 78.1904 329.13 76.2304C331.96 74.2704 335.17 73.3104 338.77 73.3204C339.56 73.3204 340.47 73.3704 341.5 73.4504C342.53 73.5304 343.38 73.6304 344.06 73.7404L343.99 87.3604C343.35 87.1304 342.36 86.9405 341.01 86.7805C339.66 86.6205 338.37 86.5405 337.13 86.5305C334.39 86.5205 331.95 87.0904 329.8 88.2404C327.65 89.3904 325.97 90.9804 324.74 93.0004C323.51 95.0204 322.89 97.3804 322.87 100.08L322.68 137.01L307.88 136.94V136.95Z" fill="#F2F5F7"/>
<path d="M374.58 138.53C368.28 138.5 362.84 137.15 358.28 134.48C353.71 131.81 350.22 128.05 347.78 123.2C345.35 118.35 344.15 112.64 344.18 106.07C344.21 99.5798 345.46 93.8899 347.93 88.9999C350.39 84.1099 353.85 80.3099 358.29 77.5999C362.73 74.8799 367.96 73.5398 373.96 73.5698C377.83 73.5898 381.49 74.2299 384.96 75.4799C388.42 76.7399 391.49 78.6599 394.16 81.2699C396.83 83.8699 398.92 87.1798 400.44 91.1798C401.96 95.1798 402.7 99.9398 402.68 105.46L402.66 110.08L351.1 109.82L351.15 99.8599L395.34 100.08L388.4 102.97C388.42 99.4099 387.89 96.2999 386.81 93.6499C385.73 90.9999 384.13 88.9199 382 87.3999C379.87 85.8899 377.21 85.1199 374.02 85.1099C370.83 85.0899 368.11 85.8298 365.85 87.3198C363.59 88.8098 361.87 90.8199 360.7 93.3499C359.53 95.8799 358.93 98.6998 358.91 101.81L358.87 108.73C358.85 112.56 359.5 115.84 360.82 118.56C362.14 121.29 364 123.37 366.42 124.81C368.83 126.25 371.65 126.98 374.88 126.99C376.98 127 378.91 126.71 380.65 126.12C382.4 125.53 383.9 124.63 385.17 123.41C386.43 122.2 387.41 120.69 388.09 118.89L401.93 120.59C401.01 124.23 399.34 127.4 396.9 130.11C394.47 132.82 391.36 134.9 387.58 136.37C383.8 137.83 379.47 138.55 374.59 138.53H374.58Z" fill="#F2F5F7"/>
<path d="M437.909 138.84C431.639 138.81 426.259 137.4 421.779 134.62C417.289 131.84 413.86 128 411.48 123.11C409.1 118.22 407.93 112.61 407.96 106.26C407.99 99.8404 409.24 94.2003 411.7 89.3403C414.16 84.4803 417.66 80.6703 422.17 77.9403C426.69 75.2003 431.999 73.8504 438.119 73.8804C443.259 73.9104 447.8 74.8704 451.73 76.7604C455.66 78.6604 458.789 81.3103 461.119 84.7203C463.449 88.1303 464.769 92.1004 465.079 96.6404L450.889 96.5703C450.519 94.5403 449.8 92.7203 448.72 91.1003C447.64 89.4803 446.23 88.2004 444.49 87.2504C442.75 86.3004 440.679 85.8203 438.279 85.8103C435.239 85.8003 432.579 86.6003 430.299 88.2203C428.019 89.8403 426.24 92.1703 424.95 95.2003C423.66 98.2303 423 101.87 422.98 106.11C422.96 110.39 423.559 114.08 424.779 117.18C425.999 120.28 427.749 122.67 430.039 124.35C432.319 126.03 434.999 126.88 438.079 126.89C441.339 126.91 444.119 125.96 446.399 124.06C448.679 122.16 450.149 119.52 450.799 116.15L464.99 116.22C464.63 120.68 463.3 124.62 460.99 128.02C458.68 131.42 455.569 134.08 451.659 136C447.749 137.91 443.159 138.86 437.909 138.83V138.84Z" fill="#F2F5F7"/>
<path d="M480.66 66.0501C478.3 66.0401 476.27 65.24 474.59 63.65C472.91 62.07 472.07 60.17 472.09 57.95C472.1 55.7 472.95 53.79 474.65 52.22C476.35 50.65 478.38 49.87 480.74 49.89C483.07 49.9 485.07 50.7 486.75 52.28C488.43 53.86 489.27 55.76 489.25 57.98C489.24 60.23 488.38 62.14 486.69 63.71C484.99 65.28 482.98 66.06 480.65 66.04L480.66 66.0501ZM472.87 137.78L473.19 74.85L487.99 74.9299L487.67 137.86L472.87 137.78Z" fill="#F2F5F7"/>
<path d="M548.48 91.9501L535.02 93.2902C534.47 91.2202 533.26 89.3902 531.39 87.7802C529.52 86.1802 526.88 85.3701 523.47 85.3501C520.39 85.3301 517.81 86.0001 515.72 87.3401C513.63 88.6801 512.58 90.4001 512.57 92.5001C512.57 94.3401 513.24 95.8502 514.6 97.0402C515.96 98.2302 518.24 99.1902 521.43 99.9202L532.17 102.23C538.06 103.5 542.46 105.55 545.37 108.38C548.28 111.21 549.73 114.86 549.71 119.32C549.69 123.26 548.53 126.74 546.22 129.77C543.92 132.8 540.74 135.15 536.7 136.81C532.66 138.48 528.01 139.3 522.75 139.27C515.06 139.23 508.88 137.58 504.23 134.31C499.57 131.04 496.79 126.51 495.88 120.73L510.35 119.45C510.97 122.27 512.36 124.4 514.51 125.86C516.66 127.32 519.42 128.05 522.8 128.07C526.33 128.09 529.17 127.38 531.31 125.95C533.46 124.52 534.54 122.75 534.55 120.65C534.57 117.12 531.77 114.71 526.14 113.4L515.4 111.09C509.36 109.75 504.91 107.59 502.03 104.63C499.15 101.67 497.73 97.9001 497.75 93.3201C497.77 89.4201 498.86 86.0501 501.01 83.2001C503.16 80.3601 506.16 78.1601 509.99 76.6001C513.83 75.0401 518.26 74.2802 523.29 74.3002C530.68 74.3402 536.48 75.9502 540.69 79.1402C544.9 82.3302 547.49 86.6001 548.48 91.9301V91.9501Z" fill="#F2F5F7"/>
<path d="M585.39 139.58C579.09 139.55 573.65 138.2 569.09 135.53C564.52 132.86 561.03 129.1 558.59 124.25C556.16 119.4 554.96 113.69 554.99 107.12C555.02 100.63 556.27 94.9397 558.74 90.0497C561.2 85.1597 564.66 81.3597 569.1 78.6497C573.54 75.9297 578.77 74.5896 584.77 74.6196C588.64 74.6396 592.3 75.2797 595.77 76.5297C599.23 77.7897 602.3 79.7196 604.97 82.3196C607.64 84.9196 609.73 88.2296 611.25 92.2296C612.77 96.2296 613.51 100.99 613.49 106.51L613.47 111.13L561.91 110.87L561.96 100.91L606.15 101.13L599.21 104.02C599.23 100.46 598.7 97.3496 597.62 94.6996C596.54 92.0496 594.94 89.9696 592.81 88.4596C590.68 86.9496 588.02 86.1797 584.83 86.1697C581.64 86.1497 578.91 86.8896 576.66 88.3796C574.41 89.8696 572.68 91.8797 571.51 94.4097C570.34 96.9397 569.74 99.7596 569.72 102.87L569.68 109.79C569.66 113.62 570.31 116.9 571.63 119.62C572.95 122.35 574.81 124.43 577.23 125.87C579.64 127.31 582.46 128.04 585.69 128.05C587.79 128.06 589.72 127.77 591.46 127.18C593.21 126.59 594.71 125.69 595.98 124.47C597.24 123.26 598.22 121.75 598.9 119.95L612.74 121.65C611.82 125.29 610.15 128.46 607.71 131.17C605.28 133.88 602.17 135.97 598.39 137.43C594.61 138.89 590.28 139.61 585.4 139.59L585.39 139.58Z" fill="#F2F5F7"/>
<path d="M646.25 138.65L646.67 54.7803L661.87 54.8602L661.69 90.3802L700.53 90.5702L700.71 55.0503L715.91 55.1302L715.49 139L700.29 138.92L700.47 103.34L661.63 103.15L661.45 138.73L646.25 138.65Z" fill="#F2F5F7"/>
<path d="M754.88 140.44C748.58 140.41 743.14 139.06 738.58 136.39C734.01 133.72 730.52 129.96 728.08 125.11C725.65 120.26 724.45 114.55 724.48 107.98C724.51 101.49 725.76 95.8 728.23 90.91C730.69 86.02 734.15 82.22 738.59 79.51C743.03 76.79 748.26 75.45 754.26 75.48C758.13 75.5 761.79 76.14 765.26 77.39C768.72 78.65 771.79 80.5699 774.46 83.1799C777.13 85.7799 779.22 89.09 780.74 93.09C782.26 97.09 783 101.85 782.98 107.37L782.96 111.99L731.4 111.73L731.45 101.77L775.64 101.99L768.7 104.88C768.72 101.32 768.19 98.2099 767.11 95.5599C766.03 92.9099 764.43 90.8299 762.3 89.3099C760.17 87.7999 757.51 87.03 754.32 87.02C751.13 87 748.4 87.74 746.15 89.23C743.9 90.72 742.17 92.73 741 95.26C739.82 97.79 739.23 100.61 739.21 103.72L739.17 110.64C739.15 114.47 739.8 117.75 741.12 120.47C742.44 123.2 744.3 125.28 746.72 126.72C749.13 128.16 751.95 128.89 755.18 128.9C757.28 128.91 759.21 128.62 760.95 128.03C762.7 127.44 764.2 126.54 765.47 125.32C766.73 124.11 767.71 122.6 768.39 120.8L782.23 122.5C781.31 126.14 779.64 129.31 777.2 132.02C774.77 134.73 771.66 136.81 767.88 138.28C764.1 139.74 759.77 140.46 754.89 140.44H754.88Z" fill="#F2F5F7"/>
<path d="M808.92 140.759C804.9 140.739 801.31 140 798.12 138.54C794.93 137.08 792.43 134.939 790.61 132.109C788.78 129.289 787.88 125.809 787.9 121.679C787.92 118.149 788.59 115.23 789.91 112.91C791.23 110.59 793.03 108.739 795.31 107.359C797.59 105.979 800.15 104.939 803.01 104.219C805.87 103.499 808.81 102.999 811.86 102.719C815.58 102.329 818.58 101.989 820.87 101.699C823.16 101.409 824.82 100.93 825.86 100.26C826.89 99.5895 827.42 98.5395 827.42 97.1195V96.8395C827.44 93.7995 826.55 91.4295 824.75 89.7295C822.96 88.0295 820.33 87.1695 816.88 87.1595C813.24 87.1395 810.36 87.9095 808.23 89.4795C806.1 91.0495 804.66 92.8995 803.9 95.0295L790.12 92.9895C791.23 89.1695 793.04 85.9795 795.57 83.4195C798.1 80.8595 801.17 78.9495 804.8 77.6695C808.43 76.3895 812.44 75.7695 816.83 75.7895C819.83 75.7995 822.83 76.1695 825.83 76.8795C828.83 77.5895 831.58 78.7794 834.09 80.4394C836.59 82.0994 838.59 84.3295 840.08 87.1095C841.57 89.8995 842.3 93.3695 842.28 97.5295L842.07 139.64L827.83 139.569L827.87 130.9H827.42C826.51 132.62 825.24 134.239 823.6 135.749C821.96 137.259 819.93 138.48 817.5 139.41C815.07 140.34 812.21 140.79 808.91 140.77L808.92 140.759ZM812.75 129.859C815.75 129.879 818.34 129.299 820.53 128.129C822.71 126.959 824.41 125.389 825.62 123.429C826.83 121.469 827.44 119.319 827.45 116.999L827.49 109.629C827 109.999 826.21 110.35 825.12 110.66C824.03 110.97 822.79 111.26 821.4 111.51C820.01 111.77 818.65 111.98 817.32 112.17C815.99 112.35 814.83 112.499 813.86 112.599C811.64 112.889 809.66 113.379 807.91 114.059C806.16 114.749 804.78 115.689 803.76 116.879C802.74 118.079 802.23 119.63 802.22 121.55C802.21 124.29 803.19 126.36 805.17 127.76C807.15 129.16 809.68 129.869 812.76 129.879L812.75 129.859Z" fill="#F2F5F7"/>
<path d="M868.289 55.8904L867.869 139.76L853.069 139.69L853.49 55.8203L868.289 55.8904Z" fill="#F2F5F7"/>
<path d="M910.45 77.0398L910.39 88.5198L874.31 88.3397L874.37 76.8597L910.45 77.0398ZM883.28 61.9297L898.08 61.9998L897.78 120.99C897.77 123.47 898.3 125.3 899.39 126.49C900.47 127.68 902.2 128.28 904.56 128.29C905.2 128.29 905.91 128.24 906.7 128.13C907.49 128.02 908.2 127.89 908.84 127.75L911.31 139.36C909.73 139.84 908.13 140.2 906.52 140.43C904.9 140.66 903.29 140.78 901.68 140.77C895.83 140.74 891.24 139.17 887.91 136.06C884.58 132.95 882.94 128.71 882.96 123.34L883.27 61.9297H883.28Z" fill="#F2F5F7"/>
<path d="M934.58 103.28L934.4 140.09L919.6 140.02L920.02 56.1504L934.49 56.2203L934.33 87.9104H935.12C936.6 84.3604 938.89 81.5504 941.97 79.5004C945.06 77.4504 949.02 76.4403 953.86 76.4603C958.21 76.4803 962.01 77.4204 965.24 79.2804C968.48 81.1404 970.99 83.8304 972.77 87.3704C974.55 90.9104 975.43 95.2104 975.41 100.27L975.21 140.29L960.35 140.21L960.54 102.5C960.56 98.2204 959.49 94.9104 957.32 92.5504C955.15 90.1904 952.12 89.0104 948.22 88.9904C945.59 88.9804 943.25 89.5304 941.2 90.6404C939.15 91.7604 937.54 93.3703 936.36 95.4803C935.19 97.6003 934.59 100.19 934.58 103.27V103.28Z" fill="#F2F5F7"/>
<path d="M193.89 97.5301C193.82 107.15 192.36 116.62 189.54 125.69C177.07 165.89 140.75 193.08 98.7798 193.85V169.74C126.58 169.03 151.75 152.42 163.28 127C167.97 116.7 170.14 105.68 169.73 94.23C168.35 56.16 137.44 25.37 99.3497 24.14C88.0097 23.78 77.0798 25.95 66.8698 30.59C41.4498 42.12 24.8398 67.31 24.1298 95.09H0.00976562C0.789766 53.13 27.9798 16.8 68.1698 4.32999C78.0698 1.24999 88.4198 -0.189951 98.9098 0.0200487C152.5 1.08005 194.21 43.9101 193.89 97.5401V97.5301Z" fill="#F2F5F7"/>
<path d="M152.19 96.9199C152.19 106.93 149.49 116.74 144.36 125.28C134.74 141.35 117.41 151.51 98.7701 152.14V128.01C101.3 127.86 103.79 127.41 106.18 126.66C107.95 126.12 109.68 125.4 111.36 124.53L111.79 124.3C113.11 123.58 114.4 122.75 115.56 121.88C116.75 121 117.89 120.01 118.94 118.94C124.83 113.07 128.08 105.24 128.08 96.9199C128.08 88.5999 124.83 80.7599 118.94 74.8999C117.88 73.8199 116.75 72.8298 115.57 71.9598C114.39 71.0798 113.11 70.2499 111.78 69.5299L111.35 69.2999C109.68 68.4299 107.94 67.7099 106.19 67.1699C103.21 66.2299 100.09 65.7699 96.9202 65.7699C88.5902 65.7699 80.7701 69.0099 74.9001 74.8899C74.6101 75.1999 74.3102 75.5099 74.0402 75.7899L73.1802 76.6699V76.7198C73.1802 76.7198 73.1701 76.7599 73.1401 76.7699L72.6802 77.2999V77.3298C72.5602 77.4898 72.4302 77.6399 72.3102 77.7999L71.9102 78.3198C71.8002 78.4798 71.6802 78.6498 71.5402 78.8398L71.1902 79.3298C71.0602 79.5398 70.9202 79.7298 70.7902 79.9298L70.5001 80.3999C70.3701 80.6099 70.2501 80.8299 70.1101 81.0299L69.8401 81.4799V81.5099C69.7101 81.7399 69.5702 81.9598 69.4502 82.1898L69.2401 82.5999C69.1101 82.8499 68.9901 83.0998 68.8701 83.3398L68.6702 83.7399V83.7699C68.5502 84.0399 68.4302 84.2898 68.3102 84.5698L68.1501 84.9298C68.0301 85.2198 67.9202 85.5198 67.8002 85.8098C66.8502 88.2998 66.2402 90.9299 65.9502 93.6199C65.9402 93.7299 65.9202 93.8099 65.9202 93.8899C65.8802 94.2499 65.8502 94.6099 65.8302 95.0499H41.7002C42.3302 76.4299 52.5002 59.0798 68.5602 49.4598C77.0902 44.3398 86.9002 41.6299 96.9202 41.6299C127.39 41.6299 152.18 66.4199 152.18 96.8899L152.19 96.9199Z" fill="#F2F5F7"/>
<path d="M83.42 139.57V193.87H57.78V174.26C57.81 173.95 57.8201 173.63 57.8201 173.42C57.8501 172.9 57.86 172.39 57.86 171.87C57.86 171.07 57.83 170.28 57.78 169.61V149.76C57.78 142.22 51.65 136.09 44.11 136.09H24.23C22.97 136 21.5301 135.98 20.5601 136.05C20.3201 136.05 20.0701 136.06 19.8101 136.09H0V110.45H54.28C70.35 110.45 83.42 123.52 83.42 139.58V139.57Z" fill="#F2F5F7"/>
<path d="M504.021 181.57V157.71H512.54C514.39 157.71 515.92 158.05 517.14 158.73C518.36 159.41 519.27 160.33 519.88 161.5C520.49 162.67 520.79 163.99 520.79 165.45C520.79 166.91 520.49 168.23 519.88 169.4C519.27 170.57 518.36 171.49 517.13 172.17C515.91 172.85 514.37 173.19 512.51 173.19H506.68V170.15H512.17C513.35 170.15 514.31 169.95 515.05 169.54C515.78 169.13 516.31 168.58 516.65 167.87C516.99 167.16 517.15 166.36 517.15 165.46C517.15 164.56 516.98 163.75 516.65 163.05C516.31 162.35 515.78 161.8 515.04 161.41C514.3 161.01 513.34 160.82 512.16 160.82H507.63V181.59H504.03L504.021 181.57Z" fill="#F2F5F7"/>
<path d="M538.681 181.57V157.71H542.281V168.09H554.161V157.71H557.761V181.57H554.161V171.18H542.281V181.57H538.681Z" fill="#F2F5F7"/>
<path d="M578.73 181.57H574.9L583.48 157.71H587.64L596.21 181.57H592.4L585.64 162.05H585.45L578.72 181.57H578.73ZM579.38 172.23H591.76V175.24H579.38V172.23Z" fill="#F2F5F7"/>
<path d="M622.3 181.89C620.14 181.89 618.25 181.39 616.62 180.4C614.99 179.41 613.72 177.99 612.81 176.16C611.9 174.33 611.44 172.16 611.44 169.65C611.44 167.14 611.9 164.92 612.82 163.09C613.74 161.26 615.01 159.85 616.62 158.86C618.23 157.87 620.07 157.38 622.13 157.38C623.41 157.38 624.61 157.57 625.73 157.95C626.85 158.33 627.84 158.87 628.71 159.58C629.58 160.28 630.3 161.11 630.87 162.07C631.44 163.03 631.83 164.09 632.03 165.25H628.35C628.13 164.54 627.83 163.9 627.45 163.34C627.07 162.78 626.63 162.3 626.1 161.9C625.58 161.5 624.99 161.2 624.33 160.99C623.67 160.78 622.95 160.68 622.14 160.68C620.79 160.68 619.58 161.02 618.5 161.71C617.42 162.4 616.57 163.41 615.94 164.74C615.31 166.07 614.99 167.71 614.99 169.64C614.99 171.57 615.3 173.21 615.94 174.54C616.57 175.87 617.43 176.89 618.53 177.58C619.63 178.27 620.88 178.61 622.28 178.61C623.57 178.61 624.7 178.35 625.66 177.82C626.62 177.29 627.37 176.55 627.9 175.59C628.43 174.63 628.7 173.49 628.7 172.18L629.64 172.36H622.82V169.38H632.2V172.1C632.2 174.11 631.78 175.84 630.93 177.31C630.08 178.77 628.91 179.9 627.41 180.71C625.91 181.52 624.2 181.91 622.28 181.91L622.3 181.89Z" fill="#F2F5F7"/>
<path d="M650.49 181.57V157.71H665.46V160.8H654.09V167.99H664.66V171.06H654.09V178.48H665.57V181.57H650.48H650.49Z" fill="#F2F5F7"/>
<path d="M706.351 181.57V157.71H714.871C716.721 157.71 718.251 158.05 719.471 158.73C720.691 159.41 721.601 160.33 722.211 161.5C722.821 162.67 723.121 163.99 723.121 165.45C723.121 166.91 722.821 168.23 722.211 169.4C721.601 170.57 720.691 171.49 719.461 172.17C718.241 172.85 716.701 173.19 714.841 173.19H709.011V170.15H714.501C715.681 170.15 716.641 169.95 717.381 169.54C718.111 169.13 718.641 168.58 718.981 167.87C719.321 167.16 719.481 166.36 719.481 165.46C719.481 164.56 719.311 163.75 718.981 163.05C718.641 162.35 718.111 161.8 717.371 161.41C716.631 161.01 715.671 160.82 714.491 160.82H709.961V181.59H706.361L706.351 181.57Z" fill="#F2F5F7"/>
<path d="M741.011 181.57V157.71H744.611V178.48H755.421V181.57H741.011Z" fill="#F2F5F7"/>
<path d="M776.44 181.57H772.61L781.19 157.71H785.35L793.92 181.57H790.11L783.35 162.05H783.16L776.43 181.57H776.44ZM777.08 172.23H789.46V175.24H777.08V172.23Z" fill="#F2F5F7"/>
<path d="M807.03 160.79V157.7H825.51V160.79H818.08V181.56H814.49V160.79H807.03Z" fill="#F2F5F7"/>
<path d="M843.261 181.57V157.71H858.071V160.8H846.861V168.54H857.001V171.62H846.861V181.58H843.261V181.57Z" fill="#F2F5F7"/>
<path d="M886.191 181.89C884.141 181.89 882.301 181.4 880.681 180.42C879.061 179.44 877.781 178.03 876.841 176.2C875.901 174.37 875.431 172.19 875.431 169.66C875.431 167.13 875.901 164.92 876.841 163.09C877.781 161.26 879.061 159.85 880.681 158.87C882.301 157.89 884.141 157.4 886.191 157.4C888.241 157.4 890.101 157.89 891.721 158.87C893.331 159.85 894.601 161.26 895.541 163.09C896.481 164.92 896.941 167.11 896.941 169.66C896.941 172.21 896.471 174.38 895.541 176.21C894.611 178.04 893.331 179.44 891.721 180.42C890.111 181.4 888.271 181.89 886.191 181.89ZM886.191 178.6C887.571 178.6 888.791 178.26 889.871 177.57C890.951 176.89 891.801 175.88 892.421 174.54C893.041 173.21 893.361 171.57 893.361 169.64C893.361 167.71 893.051 166.06 892.421 164.72C891.801 163.38 890.941 162.37 889.871 161.68C888.791 161 887.561 160.66 886.191 160.66C884.821 160.66 883.601 161 882.511 161.68C881.431 162.36 880.571 163.38 879.941 164.72C879.311 166.06 878.991 167.7 878.991 169.64C878.991 171.58 879.301 173.21 879.941 174.54C880.571 175.87 881.431 176.88 882.511 177.57C883.591 178.25 884.821 178.6 886.191 178.6Z" fill="#F2F5F7"/>
<path d="M915.101 181.57V157.71H923.621C925.471 157.71 927.001 158.03 928.221 158.66C929.441 159.3 930.351 160.18 930.961 161.3C931.571 162.43 931.871 163.73 931.871 165.2C931.871 166.67 931.571 167.93 930.961 169.04C930.351 170.15 929.441 171.01 928.211 171.62C926.991 172.23 925.451 172.53 923.591 172.53H917.171V169.45H923.261C924.441 169.45 925.401 169.28 926.141 168.94C926.871 168.6 927.401 168.11 927.741 167.48C928.081 166.85 928.241 166.09 928.241 165.19C928.241 164.29 928.071 163.5 927.731 162.84C927.391 162.18 926.851 161.68 926.121 161.32C925.391 160.96 924.431 160.78 923.241 160.78H918.711V181.55H915.111L915.101 181.57ZM928.681 181.57L922.901 170.79H926.891L932.781 181.57H928.681Z" fill="#F2F5F7"/>
<path d="M949.961 157.7H954.351L961.941 176.25H962.211L969.821 157.7H974.271V181.56H970.751V164.3H970.531L963.471 181.53H960.621L953.641 164.28H953.421V181.56H949.981V157.7H949.961Z" fill="#F2F5F7"/>
</g>
<defs>
<clipPath id="clip0_693_1504">
<rect width="976" height="194" fill="white"/>
</clipPath>
</defs>
</svg>
